<?xml version="1.0"?>
<svg xmlns="http://www.w3.org/2000/svg" xmlns:xlink="http://www.w3.org/1999/xlink" version="1.1" id="Layer_1" x="0px" y="0px" viewBox="0 0 512 512" xml:space="preserve" width="512px" height="512px">
  <g><ellipse fill="#8a5366" cx="255.956" cy="260.431" rx="203.843" ry="199.411"/><g>
  <path fill="#FE6E6E" d="M59.646,263.179v6.47c0,7.09-7.09,10.104-16.219,6.647l-36.78-13.914   c-8.863-3.456-8.863-8.863,0-12.496l37.755-14.18c5.158-2.809,11.619-0.895,14.429,4.263c1.188,2.189,1.578,4.733,1.081,7.17   C59.912,247.137,59.646,251.746,59.646,263.179z"/>
  <path fill="#FE6E6E" d="M452.265,263.179v6.47c0,7.09,7.09,10.104,16.219,6.647l36.869-13.914   c8.863-3.456,8.863-8.863,0-12.496l-37.755-14.18c-5.132-2.863-11.61-1.028-14.473,4.103c-1.241,2.225-1.64,4.83-1.126,7.329   C451.999,247.137,452.265,251.746,452.265,263.179z"/>
  <path fill="#FE6E6E" d="M282.544,105.954c2.357,6.691-1.152,14.03-7.852,16.387c-1.578,0.558-3.244,0.798-4.91,0.718H233.09   c-7.072,0.558-13.259-4.733-13.817-11.805c-0.142-1.799,0.097-3.598,0.7-5.3l7.09-26.588l8.863-34.21l11.167-37.932   c2.57-9.394,6.736-9.394,8.863,0l10.104,37.312l8.863,34.21L282.544,105.954z"/>
  <path fill="#FE6E6E" d="M149.603,147.786c6.337,2.978,9.058,10.529,6.071,16.866c-0.78,1.666-1.914,3.137-3.324,4.316   l-25.436,24.993c-4.786,5.504-13.126,6.08-18.629,1.285c-1.223-1.064-2.233-2.34-2.996-3.767l-12.496-21.093L75.067,139.81   l-21.891-36.958c-4.963-8.42-2.038-11.344,6.381-6.47l33.147,18.878l30.842,17.725L149.603,147.786z"/>
  <path fill="#FE6E6E" d="M447.302,96.471c8.863-4.786,11.344-1.861,6.381,6.47l-19.321,32.792l-17.725,30.576l-14.801,25.17   c-3.35,6.479-11.318,9.022-17.796,5.672c-1.533-0.789-2.889-1.879-4.006-3.191l-25.702-25.347   c-5.362-4.493-6.071-12.488-1.569-17.858c1.179-1.409,2.659-2.544,4.316-3.324l29.602-16.839l30.842-17.725L447.302,96.471z"/>
  <path fill="#FE6E6E" d="M269.782,388.941c7.09-0.355,13.126,5.105,13.48,12.195c0.08,1.666-0.16,3.332-0.718,4.91   l-9.483,36.071l-8.863,34.21l-8.242,28.449c-2.57,9.395-6.736,9.395-8.863,0l-7.888-28.981l-8.863-34.21l-9.66-35.451   c-2.402-6.682,1.064-14.039,7.746-16.44c1.498-0.541,3.075-0.789,4.662-0.753H269.782z"/>
  <path fill="#FE6E6E" d="M152.616,343.032c5.318,4.547,5.947,12.55,1.4,17.867c-1.205,1.418-2.712,2.544-4.414,3.315   l-31.64,17.725l-30.842,17.725l-27.563,15.864c-8.863,4.786-11.344,1.861-6.381-6.47l19.055-32.349l17.725-30.576l15.333-25.613   c3.421-6.443,11.415-8.898,17.858-5.477c1.427,0.762,2.712,1.773,3.767,2.996L152.616,343.032z"/>
  <path fill="#FE6E6E" d="M453.683,409.148c4.963,8.42,2.038,11.344-6.381,6.47l-24.461-13.914l-30.842-17.725l-35.451-19.941   c-6.337-2.978-9.058-10.529-6.071-16.866c0.78-1.666,1.914-3.137,3.324-4.316l26.234-24.816c4.866-5.433,13.205-5.903,18.647-1.046   c1.223,1.099,2.233,2.411,2.978,3.882l17.725,29.867l17.725,30.576L453.683,409.148z"/>
  <circle fill="#FE6E6E" cx="255" cy="255" r="30"/>
</g></g></svg>
