<svg version="1" xmlns="http://www.w3.org/2000/svg" width="682.667" height="682.667" viewBox="0 0 512.000000 512.000000"><path d="M249.7 1.7c-1.2 1.5-4.3 10.6-7.2 21.3-.2.8-1.8 6-3.5 11.5-1.6 5.5-3.2 11.1-3.5 12.5-.2 1.4-1.1 4.7-2 7.5-.8 2.7-1.5 5.3-1.5 5.6 0 .3 8.5.5 19 .5 10.4-.1 19-.3 19-.6s-1.2-4.8-2.6-10c-1.4-5.2-2.7-10.2-2.9-11-.2-.8-1.3-4.9-2.4-9-8.2-31.1-8.7-32.3-12.4-28.3zM271 62.4c0 .7 7.6 28.9 10 37.1 3.4 11.8 2.2 18.2-4 21.9-2.4 1.4-6.3 1.6-25.7 1.6-20.8 0-23.1-.2-26-2-3.5-2.1-6.3-6.6-6.3-10.2 0-1.3 2.7-12.4 6-24.7 3.3-12.4 5.7-22.7 5.5-23-.3-.2-6.7.8-14.3 2.3-38.7 7.6-71.9 24.7-102.7 52.8l-5.9 5.5 22.8 12.9c24 13.6 26.6 15.8 26.6 22.3 0 5.1-2 7.8-17.7 23.2-17.6 17.4-20.1 18.7-27.9 14.8-4.4-2.3-5.4-3.5-15.5-20.9-5.9-10.2-11.2-19.1-11.7-19.9-.8-1.4-1.3-.8-7.5 9.9-10.6 18.2-21.4 50.5-22.6 67.6-.1.6-1.8 1.1-3.8 1.2-3.4 0-10.4 2.3-33.3 11.3-4.1 1.6-7.8 2.9-8.3 2.9-.4 0-2.6 1.1-4.8 2.6-4.6 2.9-4.9 5.6-.9 8.5 2.5 1.8 37.1 15.5 42 16.6 1.4.3 3.7.6 5.3.6 2.1 0 2.7.5 2.8 2.4.1 1.2.2 2.6.3 3 .1.5.6 3.5 1 6.8 1.8 13.7 8.2 36.2 14.3 49.5 2.9 6.4 9.5 19.4 10.8 21.3 1.1 1.6.7 3-3.7 10.5-2.8 4.8-5.9 9.9-6.9 11.4-1.1 1.5-1.9 2.9-1.9 3.2 0 .3-2.4 4.5-5.3 9.3-8.6 14.2-10.7 18.2-10.7 20.7 0 1.9.5 2.4 2.3 2.2 2.1-.3 9.7-3.4 10.7-4.5.3-.4 1.9-1.3 3.5-2.2 3.6-1.9 29.2-16.7 32-18.5 1.8-1.2 2.8-.5 11.5 7.9 19.3 18.8 39.8 32.7 62 42.2 3.6 1.5 7.4 3.1 8.5 3.6 7.3 3.2 29.6 9.3 37.8 10.4 1.8.3 5.6.9 8.5 1.3 2.9.5 5.5.5 5.8.1.5-.9-1.4-8.6-8.7-35.4-6.1-22.4-6.2-24.5-1-29.6l3.9-3.9H251c25.4 0 27 .3 30.4 6 2.6 4.4 2 8.9-4.5 33.4-3.3 12.7-6.5 24.8-7 26.9l-1 3.7-16.9-.3c-18.2-.3-18-.4-16 4.8.5 1.4 1.2 3.8 1.5 5.3.3 1.5 1.4 5.8 2.4 9.7 1.1 3.8 3.3 12.1 5 18.2 3.1 11.6 4.6 15.3 6 15.3 1.8 0 4.4-4.3 5.7-9.5.2-.6 2.1-7.3 4.4-15 2.2-7.7 4.2-14.7 4.3-15.5 1.3-6.5 3.3-12.1 4.6-12.4.9-.3 4.8-.7 8.6-1.1 3.9-.3 12.6-1.7 19.3-3.1 38.4-7.6 73.9-26.5 102.6-54.5l7.9-7.7 7.4 4.4c4.1 2.4 7.6 4.4 7.8 4.4.3 0 9.6 5.4 16 9.3 6.1 3.7 13.6 6.9 15 6.3 2.8-1 1.5-4.2-8.1-20.7-5.4-9-11.5-19.5-13.7-23.3l-4-6.9 2.7-4.6c11.4-19.5 18.8-38.2 24.3-61.6.6-2.5 3.3-20.6 3.3-22.2 0-.7.9-1 2.1-.8 2.9.6 10-1.9 40.1-13.7 8.5-3.3 11.3-5.6 10.4-8.6-.9-2.7-3.7-4.4-12.1-7.5-3.9-1.4-13.1-4.9-20.5-7.8-7.4-2.8-15.1-5.1-17.1-5.1h-3.6l-1.2-6.7c-4.5-25.2-14-50.5-26.7-70.9-4.3-6.8-4.5-7.4-3.1-9.6 1.6-2.4 15.9-26.7 23.9-40.5 8.6-14.9 6-16.3-11.7-6.4-2.7 1.6-9 5.1-14 7.8-4.9 2.7-10.3 5.8-12 6.7-1.6 1-4.9 2.8-7.2 4l-4.2 2.1-6.6-6.1c-3.6-3.4-9.1-8.1-12.3-10.4-3.1-2.4-5.8-4.6-6-5.1-.2-.4-1-.7-1.8-.7s-1.4-.5-1.4-1c0-.6-.5-1-1-1-1 0-6.7-3.6-8-5-.3-.3-6.3-3.5-13.5-7.2-22.2-11.3-43.3-18-66.4-21.2-11.8-1.7-14.1-1.9-14.1-1.2zm136.1 65.8c3 3.5 6.8 8.1 8.4 10.3 1.7 2.2 3.2 4.2 3.5 4.5.3.3 1.8 2.4 3.4 4.7l2.9 4.3-11.3 19.2c-13.7 23.5-15 25.3-19.6 26.8-7.4 2.5-9.5 1.3-27.6-16.8L350 164.5v-5.2c0-4 .5-5.8 2.4-7.9 1.8-2.2 46.3-28.9 48.7-29.3.3-.1 3 2.7 6 6.1zM267 227.6c7.3 3.4 11.6 7.6 15.1 14.9 9.4 19.6-5.2 42.5-27.1 42.5-11.9 0-21.8-6.4-27.1-17.5-3.5-7.2-3.9-15.3-1.2-23 2.3-6.4 11-15.3 17.3-17.7 7-2.6 16.4-2.3 23 .8zm-209.1 11c1.9 2.4 2.1 4 2.1 18 0 14.9-.1 15.4-2.5 18.1-2 2.3-2.6 2.5-3.4 1.4-.8-1.2-.7-33.8 0-38.9.3-1.9 1.6-1.4 3.8 1.4zm398.7 17.9c.3 18.6-.3 21.6-3.1 17.9-2.2-2.9-2.1-32.1.1-35.2.9-1.3 1.9-2.1 2.2-1.7.4.3.7 8.9.8 19zm-334.1 58.4c2.4 1.1 10.1 8 19.3 17.3 15 15.2 15.2 15.5 15.2 19.9 0 6.9-2.4 9.7-13.6 15.9-5.4 3-16.8 9.3-25.2 14.1l-15.3 8.7-5.5-6.6c-3-3.7-7.9-10.4-11-14.9l-5.4-8.2 11.9-20.3c12.2-20.8 16.3-26.3 20.3-27.1 4.2-.8 5.3-.7 9.3 1.2zm271-.9c3.2 0 8.1 6.3 19.3 25.3 15.7 26.6 14.6 24.1 12.5 27.4-2.3 3.6-11.5 16.2-13.9 19-1.1 1.2-2.7 3.1-3.7 4.2L406 392l-3.8-2c-2-1.1-13.8-7.7-26.2-14.7-23.6-13.5-27-16.3-27-22.5 0-4.9 2.3-7.8 17.9-22.7 14.5-13.7 20.4-17.8 23.9-16.6.8.3 2 .5 2.7.5z"/><path d="M51.5 95.1c-1.1 1.7.3 5.3 5.1 13.6 5.3 8.8 5.6 9.3 17.8 30.1l8.9 15.1 5.5-7.7c5.5-7.8 13.1-17.2 16.5-20.6 1-1 1.7-1.9 1.5-2.1-.4-.5-31-18-32.8-18.8-.8-.4-3.1-1.7-5-2.8-6.6-4-14.3-7.9-15.6-7.9-.7 0-1.6.5-1.9 1.1z"/></svg>